HIERARCHY
ROOT hip
{
  OFFSET 0 90.174 2.4664
  CHANNELS 6 Xposition Yposition Zposition Zrotation Xrotation Yrotation
  JOINT abdomen
  {
    OFFSET 0 -1.186 -1.5018
    CHANNELS 6 Xposition Yposition Zposition Zrotation Xrotation Yrotation
    JOINT abdomen2
    {
      OFFSET 0 9.964 0.2134
      CHANNELS 6 Xposition Yposition Zposition Zrotation Xrotation Yrotation
      JOINT chest
      {
        OFFSET 0 13.134 -3.2573
        CHANNELS 6 Xposition Yposition Zposition Zrotation Xrotation Yrotation
        JOINT neck
        {
          OFFSET 0 20.686 -1.6905
          CHANNELS 6 Xposition Yposition Zposition Zrotation Xrotation Yrotation
          JOINT head
          {
            OFFSET 0 7.238 -0.1237
            CHANNELS 6 Xposition Yposition Zposition Zrotation Xrotation Yrotation
            End Site
            {
              OFFSET 0 0 0
            }
          }
        }
        JOINT lCollar
        {
          OFFSET 1.7069 20.075 5.0056
          CHANNELS 6 Xposition Yposition Zposition Zrotation Xrotation Yrotation
          JOINT lShldr
          {
            OFFSET 13.6458 -0.047 -4.849
            CHANNELS 6 Xposition Yposition Zposition Zrotation Xrotation Yrotation
            JOINT lForeArm
            {
              OFFSET 28.3255 -0.9759 2.2888
              CHANNELS 6 Xposition Yposition Zposition Zrotation Xrotation Yrotation
              JOINT lHand
              {
                OFFSET 22.1583 -0.53 10.8316
                CHANNELS 6 Xposition Yposition Zposition Zrotation Xrotation Yrotation
                JOINT lThumb1
                {
                  OFFSET 0.786 0.112 2.5817
                  CHANNELS 6 Xposition Yposition Zposition Zrotation Xrotation Yrotation
                  JOINT lThumb2
                  {
                    OFFSET 0.3601 -0.878 4.2331
                    CHANNELS 6 Xposition Yposition Zposition Zrotation Xrotation Yrotation
                    JOINT lThumb2_End
                    {
                      OFFSET 1.8127 -1.216 2.2227
                      CHANNELS 6 Xposition Yposition Zposition Zrotation Xrotation Yrotation
                      End Site
                      {
                        OFFSET 0.0181 -0.0122 0.0222
                      }
                    }
                  }
                }
                JOINT lCarpal1
                {
                  OFFSET 0.9571 1.114 1.7695
                  CHANNELS 6 Xposition Yposition Zposition Zrotation Xrotation Yrotation
                  JOINT lIndex1
                  {
                    OFFSET 4.1246 0.487 4.1451
                    CHANNELS 6 Xposition Yposition Zposition Zrotation Xrotation Yrotation
                    JOINT lIndex2
                    {
                      OFFSET 3.4052 -1.454 2.7682
                      CHANNELS 6 Xposition Yposition Zposition Zrotation Xrotation Yrotation
                      JOINT lIndex2_End
                      {
                        OFFSET 1.4531 -1.795 1.2713
                        CHANNELS 6 Xposition Yposition Zposition Zrotation Xrotation Yrotation
                        End Site
                        {
                          OFFSET 0.0145 -0.0179 0.0127
                        }
                      }
                    }
                  }
                  JOINT lMid1
                  {
                    OFFSET 5.6954 0.21 2.1184
                    CHANNELS 6 Xposition Yposition Zposition Zrotation Xrotation Yrotation
                    JOINT lMid2
                    {
                      OFFSET 3.9766 -1.54 2.3863
                      CHANNELS 6 Xposition Yposition Zposition Zrotation Xrotation Yrotation
                      JOINT lMid2_End
                      {
                        OFFSET 1.4042 -1.926 1.125
                        CHANNELS 6 Xposition Yposition Zposition Zrotation Xrotation Yrotation
                        End Site
                        {
                          OFFSET 0.014 -0.0193 0.0113
                        }
                      }
                    }
                  }
                }
                JOINT lCarpal2
                {
                  OFFSET 2.0956 0.66 -0.3894
                  CHANNELS 6 Xposition Yposition Zposition Zrotation Xrotation Yrotation
                  JOINT lRing1
                  {
                    OFFSET 5.0395 -0.09 2.4971
                    CHANNELS 6 Xposition Yposition Zposition Zrotation Xrotation Yrotation
                    JOINT lRing2
                    {
                      OFFSET 3.7921 -1.552 1.4806
                      CHANNELS 6 Xposition Yposition Zposition Zrotation Xrotation Yrotation
                      JOINT lRing2_End
                      {
                        OFFSET 1.4655 -1.808 0.9609
                        CHANNELS 6 Xposition Yposition Zposition Zrotation Xrotation Yrotation
                        End Site
                        {
                          OFFSET 0.0147 -0.0181 0.0096
                        }
                      }
                    }
                  }
                  JOINT lPinky1
                  {
                    OFFSET 4.9141 -1.269 0.3591
                    CHANNELS 6 Xposition Yposition Zposition Zrotation Xrotation Yrotation
                    JOINT lPinky2
                    {
                      OFFSET 3.1477 -1.685 0.8462
                      CHANNELS 6 Xposition Yposition Zposition Zrotation Xrotation Yrotation
                      JOINT lPinky2_End
                      {
                        OFFSET 0.8055 -1.585 0.7955
                        CHANNELS 6 Xposition Yposition Zposition Zrotation Xrotation Yrotation
                        End Site
                        {
                          OFFSET 0.0081 -0.0158 0.008
                        }
                      }
                    }
                  }
                }
              }
            }
          }
        }
        JOINT rCollar
        {
          OFFSET -1.7069 20.075 5.0056
          CHANNELS 6 Xposition Yposition Zposition Zrotation Xrotation Yrotation
          JOINT rShldr
          {
            OFFSET -13.6458 -0.047 -4.849
            CHANNELS 6 Xposition Yposition Zposition Zrotation Xrotation Yrotation
            JOINT rForeArm
            {
              OFFSET -28.3255 -0.9759 2.2888
              CHANNELS 6 Xposition Yposition Zposition Zrotation Xrotation Yrotation
              JOINT rHand
              {
                OFFSET -22.1583 -0.53 10.8316
                CHANNELS 6 Xposition Yposition Zposition Zrotation Xrotation Yrotation
                JOINT rThumb1
                {
                  OFFSET -0.786 0.112 2.5817
                  CHANNELS 6 Xposition Yposition Zposition Zrotation Xrotation Yrotation
                  JOINT rThumb2
                  {
                    OFFSET -0.3601 -0.878 4.2331
                    CHANNELS 6 Xposition Yposition Zposition Zrotation Xrotation Yrotation
                    JOINT rThumb2_End
                    {
                      OFFSET -1.8127 -1.216 2.2227
                      CHANNELS 6 Xposition Yposition Zposition Zrotation Xrotation Yrotation
                      End Site
                      {
                        OFFSET -0.0181 -0.0122 0.0222
                      }
                    }
                  }
                }
                JOINT rCarpal1
                {
                  OFFSET -0.9571 1.114 1.7695
                  CHANNELS 6 Xposition Yposition Zposition Zrotation Xrotation Yrotation
                  JOINT rIndex1
                  {
                    OFFSET -4.1246 0.487 4.1451
                    CHANNELS 6 Xposition Yposition Zposition Zrotation Xrotation Yrotation
                    JOINT rIndex2
                    {
                      OFFSET -3.4052 -1.454 2.7682
                      CHANNELS 6 Xposition Yposition Zposition Zrotation Xrotation Yrotation
                      JOINT rIndex2_End
                      {
                        OFFSET -1.4531 -1.795 1.2713
                        CHANNELS 6 Xposition Yposition Zposition Zrotation Xrotation Yrotation
                        End Site
                        {
                          OFFSET -0.0145 -0.018 0.0127
                        }
                      }
                    }
                  }
                  JOINT rMid1
                  {
                    OFFSET -5.6954 0.21 2.1184
                    CHANNELS 6 Xposition Yposition Zposition Zrotation Xrotation Yrotation
                    JOINT rMid2
                    {
                      OFFSET -3.9766 -1.54 2.3863
                      CHANNELS 6 Xposition Yposition Zposition Zrotation Xrotation Yrotation
                      JOINT rMid2_End
                      {
                        OFFSET -1.4042 -1.926 1.125
                        CHANNELS 6 Xposition Yposition Zposition Zrotation Xrotation Yrotation
                        End Site
                        {
                          OFFSET -0.014 -0.0193 0.0113
                        }
                      }
                    }
                  }
                }
                JOINT rCarpal2
                {
                  OFFSET -2.0956 0.66 -0.3894
                  CHANNELS 6 Xposition Yposition Zposition Zrotation Xrotation Yrotation
                  JOINT rRing1
                  {
                    OFFSET -5.0395 -0.09 2.4971
                    CHANNELS 6 Xposition Yposition Zposition Zrotation Xrotation Yrotation
                    JOINT rRing2
                    {
                      OFFSET -3.7921 -1.552 1.4806
                      CHANNELS 6 Xposition Yposition Zposition Zrotation Xrotation Yrotation
                      JOINT rRing2_End
                      {
                        OFFSET -1.4655 -1.808 0.9609
                        CHANNELS 6 Xposition Yposition Zposition Zrotation Xrotation Yrotation
                        End Site
                        {
                          OFFSET -0.0147 -0.0181 0.0096
                        }
                      }
                    }
                  }
                  JOINT rPinky1
                  {
                    OFFSET -4.9141 -1.269 0.3592
                    CHANNELS 6 Xposition Yposition Zposition Zrotation Xrotation Yrotation
                    JOINT rPinky2
                    {
                      OFFSET -3.1477 -1.685 0.8462
                      CHANNELS 6 Xposition Yposition Zposition Zrotation Xrotation Yrotation
                      JOINT rPinky2_End
                      {
                        OFFSET -0.8055 -1.585 0.7955
                        CHANNELS 6 Xposition Yposition Zposition Zrotation Xrotation Yrotation
                        End Site
                        {
                          OFFSET -0.0081 -0.0158 0.008
                        }
                      }
                    }
                  }
                }
              }
            }
          }
        }
      }
    }
  }
  JOINT lThigh
  {
    OFFSET 8.367 -8.2066 0.5982
    CHANNELS 6 Xposition Yposition Zposition Zrotation Xrotation Yrotation
    JOINT lShin
    {
      OFFSET 2.1923 -43.463 -0.4932
      CHANNELS 6 Xposition Yposition Zposition Zrotation Xrotation Yrotation
      JOINT lFoot
      {
        OFFSET 0.7333 -45.8593 -2.6451
        CHANNELS 6 Xposition Yposition Zposition Zrotation Xrotation Yrotation
        End Site
        {
          OFFSET 2.6618 -4.2699 12.3931
        }
      }
    }
  }
  JOINT rThigh
  {
    OFFSET -8.367 -8.2066 0.5982
    CHANNELS 6 Xposition Yposition Zposition Zrotation Xrotation Yrotation
    JOINT rShin
    {
      OFFSET -2.1923 -43.463 -0.4931
      CHANNELS 6 Xposition Yposition Zposition Zrotation Xrotation Yrotation
      JOINT rFoot
      {
        OFFSET -0.7333 -45.8593 -2.6451
        CHANNELS 6 Xposition Yposition Zposition Zrotation Xrotation Yrotation
        End Site
        {
          OFFSET -2.6618 -4.2699 12.3931
        }
      }
    }
  }
}
MOTION
Frames:	4
Frame Time:	0.0333333
0 90.174 2.4664 0 0 -0 0 -1.186 -1.5018 0 0 -0 0 9.964 0.2134 0 0 -0 0 13.134 -3.2573 0 0 -0 0 20.686 -1.6905 0 0 -0 0 7.238 -0.1237 0 0 -0 1.7069 20.075 5.0056 0 0 -0 13.6458 -0.047 -4.849 1.66051 0.0835086 5.75766 28.3255 -0.9759 2.2888 -0.0175111 0.895433 15.7816 22.1583 -0.53 10.8316 7.95139e-016 -1.98785e-016 -0 0.786 0.112 2.5817 5.46658e-016 -3.97569e-016 -0 0.3601 -0.878 4.2331 5.96354e-016 0 -0 1.8127 -1.216 2.2227 3.97569e-016 1.98785e-016 9.54166e-015 0.9571 1.114 1.7695 1.49089e-016 -3.97569e-016 -0 4.1246 0.487 4.1451 6.4605e-016 0 3.18055e-015 3.4052 -1.454 2.7682 5.96354e-016 0 3.18055e-015 1.4531 -1.795 1.2713 8.94531e-016 -1.98785e-016 6.36111e-015 5.6954 0.21 2.1184 6.4605e-016 0 3.18055e-015 3.9766 -1.54 2.3863 5.96354e-016 0 3.18055e-015 1.4042 -1.926 1.125 8.94531e-016 -1.98785e-016 6.36111e-015 2.0956 0.66 -0.3894 1.49089e-016 -3.97569e-016 -0 5.0395 -0.09 2.4971 6.4605e-016 0 3.18055e-015 3.7921 -1.552 1.4806 5.96354e-016 0 3.18055e-015 1.4655 -1.808 0.9609 8.94531e-016 -1.98785e-016 6.36111e-015 4.9141 -1.269 0.3591 6.4605e-016 0 3.18055e-015 3.1477 -1.685 0.8462 5.96354e-016 0 3.18055e-015 0.8055 -1.585 0.7955 8.94531e-016 -1.98785e-016 6.36111e-015 -1.7069 20.075 5.0056 0 0 -0 -13.6458 -0.047 -4.849 -1.4496 0.0636048 -5.0245 -28.3255 -0.9759 2.2888 -1.74811 1.20616 -16.8394 -22.1583 -0.53 10.8316 -1.19271e-015 1.98785e-016 -3.18055e-015 -0.786 0.112 2.5817 -3.97569e-016 1.98785e-016 -3.18055e-015 -0.3601 -0.878 4.2331 -2.98177e-016 1.98785e-016 -3.18055e-015 -1.8127 -1.216 2.2227 -2.98177e-016 3.97569e-016 -0 -0.9571 1.114 1.7695 4.96962e-016 0 -6.36111e-015 -4.1246 0.487 4.1451 -9.93923e-017 3.97569e-016 -0 -3.4052 -1.454 2.7682 -8.94531e-016 5.96354e-016 -0 -1.4531 -1.795 1.2713 -3.97569e-016 3.97569e-016 -0 -5.6954 0.21 2.1184 -9.93923e-017 3.97569e-016 -0 -3.9766 -1.54 2.3863 -8.94531e-016 5.96354e-016 -0 -1.4042 -1.926 1.125 -3.97569e-016 3.97569e-016 -0 -2.0956 0.66 -0.3894 4.96962e-016 0 -6.36111e-015 -5.0395 -0.09 2.4971 -9.93923e-017 3.97569e-016 -0 -3.7921 -1.552 1.4806 -8.94531e-016 5.96354e-016 -0 -1.4655 -1.808 0.9609 -3.97569e-016 3.97569e-016 -0 -4.9141 -1.269 0.3592 -9.93923e-017 3.97569e-016 -0 -3.1477 -1.685 0.8462 -8.94531e-016 5.96354e-016 -0 -0.8055 -1.585 0.7955 -3.97569e-016 3.97569e-016 -0 8.367 -8.2066 0.5982 -4.66115 -1.03232 0.120763 2.1923 -43.463 -0.4932 0.00990601 1.55097 0.177175 0.7333 -45.8593 -2.6451 4.65196 -0.54114 -0.255042 -8.367 -8.2066 0.5982 4.66115 -1.03222 -0.120763 -2.1923 -43.463 -0.4931 -0.00990459 1.5509 -0.177176 -0.7333 -45.8593 -2.6451 -4.65196 -0.541171 0.255041 
-0.337582 18.2689 -5.42023 -0 -66.6681 -0 0 -1.186 -1.5018 0.125176 3.74763 -0.197807 0 9.964 0.2134 0.264199 7.49477 -0.405144 2.77556e-017 13.134 -3.2573 0.264199 7.49477 -0.405144 5.55112e-017 20.686 -1.6905 -1.94447e-005 13.3595 5.65736e-006 -9.71445e-017 7.238 -0.1237 -2.51902e-007 6.6656 -1.73292e-008 1.7069 20.075 5.0056 13.9585 2.46046 4.13876 13.6458 -0.047 -4.849 -43.2514 11.8357 40.0735 28.3255 -0.9759 2.2888 22.3512 10.9008 -42.4519 22.1583 -0.53 10.8316 1.87949 18.088 -1.51539 0.786 0.112 2.5817 -2.98177e-015 -1.59028e-015 9.54166e-015 0.3601 -0.878 4.2331 -2.18663e-015 -7.95139e-016 9.54166e-015 1.8127 -1.216 2.2227 -2.78299e-015 -7.95139e-016 6.36111e-015 0.9571 1.114 1.7695 -9.93923e-016 -7.95139e-016 6.36111e-015 4.1246 0.487 4.1451 -2.18663e-015 -2.38542e-015 1.27222e-014 3.4052 -1.454 2.7682 -2.98177e-015 0 6.36111e-015 1.4531 -1.795 1.2713 -1.98785e-016 -7.95139e-016 6.36111e-015 5.6954 0.21 2.1184 -2.18663e-015 -2.38542e-015 1.27222e-014 3.9766 -1.54 2.3863 -2.98177e-015 0 6.36111e-015 1.4042 -1.926 1.125 -1.98785e-016 -7.95139e-016 6.36111e-015 2.0956 0.66 -0.3894 -9.93923e-016 -7.95139e-016 6.36111e-015 5.0395 -0.09 2.4971 -2.18663e-015 -2.38542e-015 1.27222e-014 3.7921 -1.552 1.4806 -2.98177e-015 0 6.36111e-015 1.4655 -1.808 0.9609 -1.98785e-016 -7.95139e-016 6.36111e-015 4.9141 -1.269 0.3591 -2.18663e-015 -2.38542e-015 1.27222e-014 3.1477 -1.685 0.8462 -2.98177e-015 0 6.36111e-015 0.8055 -1.585 0.7955 -1.98785e-016 -7.95139e-016 6.36111e-015 -1.7069 20.075 5.0056 -6.8184 1.86682 -7.66607 -13.6458 -0.047 -4.849 29.7666 16.5277 -23.3058 -28.3255 -0.9759 2.2888 -19.321 19.9465 31.7064 -22.1583 -0.53 10.8316 -2.07219 18.0208 2.04886 -0.786 0.112 2.5817 -1.98785e-015 -3.18055e-015 -9.54166e-015 -0.3601 -0.878 4.2331 -1.98785e-015 -3.18055e-015 -9.54166e-015 -1.8127 -1.216 2.2227 1.98785e-015 -1.59028e-015 -0 -0.9571 1.114 1.7695 -2.78299e-015 -1.59028e-015 -6.36111e-015 -4.1246 0.487 4.1451 -5.56597e-015 -3.18055e-015 3.18055e-015 -3.4052 -1.454 2.7682 7.95139e-016 -3.18055e-015 -3.18055e-015 -1.4531 -1.795 1.2713 1.98785e-015 -1.59028e-015 -6.36111e-015 -5.6954 0.21 2.1184 -5.56597e-015 -3.18055e-015 3.18055e-015 -3.9766 -1.54 2.3863 7.95139e-016 -3.18055e-015 -3.18055e-015 -1.4042 -1.926 1.125 1.98785e-015 -1.59028e-015 -6.36111e-015 -2.0956 0.66 -0.3894 -2.78299e-015 -1.59028e-015 -6.36111e-015 -5.0395 -0.09 2.4971 -5.56597e-015 -3.18055e-015 3.18055e-015 -3.7921 -1.552 1.4806 7.95139e-016 -3.18055e-015 -3.18055e-015 -1.4655 -1.808 0.9609 1.98785e-015 -1.59028e-015 -6.36111e-015 -4.9141 -1.269 0.3592 -5.56597e-015 -3.18055e-015 3.18055e-015 -3.1477 -1.685 0.8462 7.95139e-016 -3.18055e-015 -3.18055e-015 -0.8055 -1.585 0.7955 1.98785e-015 -1.59028e-015 -6.36111e-015 8.367 -8.2066 0.5982 150.176 -75.8897 160.153 2.1923 -43.463 -0.4932 -1.42139 8.26633 1.10928 0.7333 -45.8593 -2.6451 9.2255 9.87458 0.012012 -8.367 -8.2066 0.5982 -176.56 -74.2153 177.169 -2.1923 -43.463 -0.4931 1.84291 29.863 -3.17505 -0.7333 -45.8593 -2.6451 -9.21189 15.0976 0.974447 
-0.590634 -9.5378 -0.807553 -180 -83.3313 -180 0 -1.186 -1.5018 0.181046 5.43428 -0.295067 0 9.964 0.2134 0.393022 10.8675 -0.61163 0 13.134 -3.2573 0.393022 10.8675 -0.61163 0 20.686 -1.6905 8.75284e-006 19.239 -3.8325e-006 0 7.238 -0.1237 3.18344e-007 9.66513 2.55637e-008 1.7069 20.075 5.0056 20.1238 3.55748 6.00724 13.6458 -0.047 -4.849 -67.5194 13.6136 56.2312 28.3255 -0.9759 2.2888 35.8518 0.758302 -65.5617 22.1583 -0.53 10.8316 3.11385 26.2123 -3.03461 0.786 0.112 2.5817 3.97569e-016 7.95139e-016 -0 0.3601 -0.878 4.2331 3.97569e-016 1.59028e-015 3.18055e-015 1.8127 -1.216 2.2227 2.01693e-007 6.91008e-008 -1.01001e-008 0.9571 1.114 1.7695 3.97569e-016 0 -0 4.1246 0.487 4.1451 1.76556e-031 -7.95139e-016 1.27222e-014 3.4052 -1.454 2.7682 3.97569e-016 2.38542e-015 1.27222e-014 1.4531 -1.795 1.2713 2.01693e-007 6.91008e-008 -1.01001e-008 5.6954 0.21 2.1184 1.76556e-031 -7.95139e-016 1.27222e-014 3.9766 -1.54 2.3863 3.97569e-016 2.38542e-015 1.27222e-014 1.4042 -1.926 1.125 2.01693e-007 6.91008e-008 -1.01001e-008 2.0956 0.66 -0.3894 3.97569e-016 0 -0 5.0395 -0.09 2.4971 1.76556e-031 -7.95139e-016 1.27222e-014 3.7921 -1.552 1.4806 3.97569e-016 2.38542e-015 1.27222e-014 1.4655 -1.808 0.9609 2.01693e-007 6.91008e-008 -1.01001e-008 4.9141 -1.269 0.3591 1.76556e-031 -7.95139e-016 1.27222e-014 3.1477 -1.685 0.8462 3.97569e-016 2.38542e-015 1.27222e-014 0.8055 -1.585 0.7955 2.01693e-007 6.91008e-008 -1.01001e-008 -1.7069 20.075 5.0056 -9.78163 2.69569 -11.1649 -13.6458 -0.047 -4.849 47.3944 22.5584 -32.6857 -28.3255 -0.9759 2.2888 -34.4144 14.7799 52.8256 -22.1583 -0.53 10.8316 -3.47329 26.1105 3.87005 -0.786 0.112 2.5817 -1.98785e-016 5.96354e-016 3.18055e-015 -0.3601 -0.878 4.2331 -3.97569e-016 0 6.36111e-015 -1.8127 -1.216 2.2227 -6.95746e-016 0 6.36111e-015 -0.9571 1.114 1.7695 1.98785e-016 5.96354e-016 3.18055e-015 -4.1246 0.487 4.1451 -4.96962e-016 -1.98785e-015 1.59028e-014 -3.4052 -1.454 2.7682 -3.97569e-016 3.97569e-016 1.27222e-014 -1.4531 -1.795 1.2713 -4.96962e-016 0 1.59028e-014 -5.6954 0.21 2.1184 -4.96962e-016 -1.98785e-015 1.59028e-014 -3.9766 -1.54 2.3863 -3.97569e-016 3.97569e-016 1.27222e-014 -1.4042 -1.926 1.125 -4.96962e-016 0 1.59028e-014 -2.0956 0.66 -0.3894 1.98785e-016 5.96354e-016 3.18055e-015 -5.0395 -0.09 2.4971 -4.96962e-016 -1.98785e-015 1.59028e-014 -3.7921 -1.552 1.4806 -3.97569e-016 3.97569e-016 1.27222e-014 -1.4655 -1.808 0.9609 -4.96962e-016 0 1.59028e-014 -4.9141 -1.269 0.3592 -4.96962e-016 -1.98785e-015 1.59028e-014 -3.1477 -1.685 0.8462 -3.97569e-016 3.97569e-016 1.27222e-014 -0.8055 -1.585 0.7955 -4.96962e-016 0 1.59028e-014 8.367 -8.2066 0.5982 160.979 -33.9199 167.278 2.1923 -43.463 -0.4932 -2.04295 4.9745 1.12521 0.7333 -45.8593 -2.6451 11.813 17.7385 -0.276044 -8.367 -8.2066 0.5982 -174.149 -27.4161 -178.015 -2.1923 -43.463 -0.4931 3.0887 42.1286 -3.70557 -0.7333 -45.8593 -2.6451 -11.3558 22.7518 0.241525 
-0.560625 -3.99733 -1.63489 -180 -89.9981 -180 0 -1.186 -1.5018 0.168634 5.05945 -0.272999 0 9.964 0.2134 0.363717 10.118 -0.564335 1.11022e-016 13.134 -3.2573 0.363717 10.118 -0.564335 0 20.686 -1.6905 -2.90024e-006 17.6414 1.07418e-006 2.22045e-016 7.238 -0.1237 -1.14454e-007 8.99857 -3.67135e-009 1.7069 20.075 5.0056 18.7599 3.31454 5.59152 13.6458 -0.047 -4.849 -61.9899 13.4919 52.6317 28.3255 -0.9759 2.2888 33.1688 3.81195 -60.9048 22.1583 -0.53 10.8316 2.72576 24.5684 -2.63694 0.786 0.112 2.5817 4.51131e-007 2.05396e-007 6.45643e-007 0.3601 -0.878 4.2331 -4.51131e-007 -2.05396e-007 -6.45643e-007 1.8127 -1.216 2.2227 4.51131e-007 2.05396e-007 6.45643e-007 0.9571 1.114 1.7695 8.94531e-016 0 9.54166e-015 4.1246 0.487 4.1451 4.51131e-007 2.05396e-007 6.45643e-007 3.4052 -1.454 2.7682 -4.51131e-007 -2.05396e-007 -6.45643e-007 1.4531 -1.795 1.2713 4.51131e-007 2.05396e-007 6.45643e-007 5.6954 0.21 2.1184 4.51131e-007 2.05396e-007 6.45643e-007 3.9766 -1.54 2.3863 -4.51131e-007 -2.05396e-007 -6.45643e-007 1.4042 -1.926 1.125 4.51131e-007 2.05396e-007 6.45643e-007 2.0956 0.66 -0.3894 8.94531e-016 0 9.54166e-015 5.0395 -0.09 2.4971 4.51131e-007 2.05396e-007 6.45643e-007 3.7921 -1.552 1.4806 -4.51131e-007 -2.05396e-007 -6.45643e-007 1.4655 -1.808 0.9609 4.51131e-007 2.05396e-007 6.45643e-007 4.9141 -1.269 0.3591 4.51131e-007 2.05396e-007 6.45643e-007 3.1477 -1.685 0.8462 -4.51131e-007 -2.05396e-007 -6.45643e-007 0.8055 -1.585 0.7955 4.51131e-007 2.05396e-007 6.45643e-007 -1.7069 20.075 5.0056 -9.26016 2.5485 -10.4817 -13.6458 -0.047 -4.849 43.2835 21.3367 -30.5163 -28.3255 -0.9759 2.2888 -31.1733 16.7527 48.5957 -22.1583 -0.53 10.8316 -3.0817 24.5249 3.45458 -0.786 0.112 2.5817 1.19271e-015 -1.59028e-015 -1.59028e-014 -0.3601 -0.878 4.2331 -7.95139e-016 -2.38542e-015 -9.54166e-015 -1.8127 -1.216 2.2227 -1.76556e-031 -3.18055e-015 -3.18055e-015 -0.9571 1.114 1.7695 7.95139e-016 -7.95139e-016 -9.54166e-015 -4.1246 0.487 4.1451 -3.97569e-016 -3.18055e-015 6.36111e-015 -3.4052 -1.454 2.7682 -5.29669e-031 -3.18055e-015 -9.54166e-015 -1.4531 -1.795 1.2713 -3.97569e-016 -2.38542e-015 -6.36111e-015 -5.6954 0.21 2.1184 -3.97569e-016 -3.18055e-015 6.36111e-015 -3.9766 -1.54 2.3863 -5.29669e-031 -3.18055e-015 -9.54166e-015 -1.4042 -1.926 1.125 -3.97569e-016 -2.38542e-015 -6.36111e-015 -2.0956 0.66 -0.3894 7.95139e-016 -7.95139e-016 -9.54166e-015 -5.0395 -0.09 2.4971 -3.97569e-016 -3.18055e-015 6.36111e-015 -3.7921 -1.552 1.4806 -5.29669e-031 -3.18055e-015 -9.54166e-015 -1.4655 -1.808 0.9609 -3.97569e-016 -2.38542e-015 -6.36111e-015 -4.9141 -1.269 0.3592 -3.97569e-016 -3.18055e-015 6.36111e-015 -3.1477 -1.685 0.8462 -5.29669e-031 -3.18055e-015 -9.54166e-015 -0.8055 -1.585 0.7955 -3.97569e-016 -2.38542e-015 -6.36111e-015 8.367 -8.2066 0.5982 160.009 -43.1629 167.64 2.1923 -43.463 -0.4932 -1.90586 5.66751 1.12851 0.7333 -45.8593 -2.6451 11.2453 16.0917 -0.203218 -8.367 -8.2066 0.5982 -174.091 -37.7704 -178.833 -2.1923 -43.463 -0.4931 2.7908 39.4259 -3.38999 -0.7333 -45.8593 -2.6451 -10.9791 21.0819 0.364369 
